<mxfile host="app.diagrams.net" modified="2024-04-08T01:50:38.869Z" agent="Mozilla/5.0 (X11; Ubuntu; Linux x86_64; rv:124.0) Gecko/20100101 Firefox/124.0" etag="_cwPJ4rqkqk_YiQHLy9c" version="24.2.2" type="github">
  <diagram name="Page-1" id="-WETygOvhYKLJvWQvo6D">
    <mxGraphModel dx="1430" dy="873" grid="1" gridSize="10" guides="1" tooltips="1" connect="1" arrows="1" fold="1" page="1" pageScale="1" pageWidth="850" pageHeight="1100" math="0" shadow="0">
      <root>
        <mxCell id="0" />
        <mxCell id="1" parent="0" />
        <mxCell id="1y08PZAfGzx5HJ8WRer2-4" style="rounded=0;orthogonalLoop=1;jettySize=auto;html=1;exitX=0.5;exitY=0;exitDx=0;exitDy=0;entryX=0.5;entryY=1;entryDx=0;entryDy=0;endArrow=none;endFill=0;shape=link;strokeWidth=2;fontSize=23;" parent="1" edge="1">
          <mxGeometry relative="1" as="geometry">
            <mxPoint x="100" y="480" as="sourcePoint" />
            <mxPoint x="220" y="440" as="targetPoint" />
          </mxGeometry>
        </mxCell>
        <mxCell id="1y08PZAfGzx5HJ8WRer2-5" style="rounded=0;orthogonalLoop=1;jettySize=auto;html=1;exitX=0.5;exitY=0;exitDx=0;exitDy=0;entryX=0.5;entryY=1;entryDx=0;entryDy=0;endArrow=none;endFill=0;shape=link;strokeWidth=2;fontSize=23;" parent="1" edge="1">
          <mxGeometry relative="1" as="geometry">
            <mxPoint x="70" y="480" as="sourcePoint" />
            <mxPoint x="190" y="440" as="targetPoint" />
          </mxGeometry>
        </mxCell>
        <mxCell id="1y08PZAfGzx5HJ8WRer2-6" style="rounded=0;orthogonalLoop=1;jettySize=auto;html=1;exitX=0.5;exitY=0;exitDx=0;exitDy=0;entryX=0.5;entryY=1;entryDx=0;entryDy=0;endArrow=none;endFill=0;shape=link;strokeWidth=2;fontSize=23;" parent="1" edge="1">
          <mxGeometry relative="1" as="geometry">
            <mxPoint x="160" y="480" as="sourcePoint" />
            <mxPoint x="280" y="440" as="targetPoint" />
          </mxGeometry>
        </mxCell>
        <mxCell id="1y08PZAfGzx5HJ8WRer2-7" style="rounded=0;orthogonalLoop=1;jettySize=auto;html=1;exitX=0.5;exitY=0;exitDx=0;exitDy=0;entryX=0.5;entryY=1;entryDx=0;entryDy=0;endArrow=none;endFill=0;shape=link;strokeWidth=2;fontSize=23;" parent="1" edge="1">
          <mxGeometry relative="1" as="geometry">
            <mxPoint x="130" y="480" as="sourcePoint" />
            <mxPoint x="250" y="440" as="targetPoint" />
          </mxGeometry>
        </mxCell>
        <mxCell id="1y08PZAfGzx5HJ8WRer2-8" style="rounded=0;orthogonalLoop=1;jettySize=auto;html=1;exitX=0.5;exitY=0;exitDx=0;exitDy=0;entryX=0.5;entryY=1;entryDx=0;entryDy=0;endArrow=none;endFill=0;shape=link;strokeWidth=2;fontSize=23;" parent="1" edge="1">
          <mxGeometry relative="1" as="geometry">
            <mxPoint x="370" y="480" as="sourcePoint" />
            <mxPoint x="250" y="440" as="targetPoint" />
          </mxGeometry>
        </mxCell>
        <mxCell id="1y08PZAfGzx5HJ8WRer2-10" style="rounded=0;orthogonalLoop=1;jettySize=auto;html=1;exitX=0.5;exitY=0;exitDx=0;exitDy=0;entryX=0.5;entryY=1;entryDx=0;entryDy=0;endArrow=none;endFill=0;shape=link;strokeWidth=2;fontSize=23;" parent="1" edge="1">
          <mxGeometry relative="1" as="geometry">
            <mxPoint x="400" y="480" as="sourcePoint" />
            <mxPoint x="280" y="440" as="targetPoint" />
          </mxGeometry>
        </mxCell>
        <mxCell id="1y08PZAfGzx5HJ8WRer2-11" style="rounded=0;orthogonalLoop=1;jettySize=auto;html=1;exitX=0.5;exitY=0;exitDx=0;exitDy=0;entryX=0.5;entryY=1;entryDx=0;entryDy=0;endArrow=none;endFill=0;shape=link;strokeWidth=2;fontSize=23;" parent="1" edge="1">
          <mxGeometry relative="1" as="geometry">
            <mxPoint x="310" y="480" as="sourcePoint" />
            <mxPoint x="190" y="440" as="targetPoint" />
          </mxGeometry>
        </mxCell>
        <mxCell id="1y08PZAfGzx5HJ8WRer2-12" style="rounded=0;orthogonalLoop=1;jettySize=auto;html=1;exitX=0.5;exitY=0;exitDx=0;exitDy=0;entryX=0.5;entryY=1;entryDx=0;entryDy=0;endArrow=none;endFill=0;shape=link;strokeWidth=2;fontSize=23;" parent="1" edge="1">
          <mxGeometry relative="1" as="geometry">
            <mxPoint x="340" y="480" as="sourcePoint" />
            <mxPoint x="220" y="440" as="targetPoint" />
          </mxGeometry>
        </mxCell>
        <mxCell id="1y08PZAfGzx5HJ8WRer2-39" style="rounded=0;orthogonalLoop=1;jettySize=auto;html=1;entryX=0.5;entryY=1;entryDx=0;entryDy=0;endArrow=none;endFill=0;shape=link;endSize=0;startSize=0;sourcePerimeterSpacing=-4;targetPerimeterSpacing=7;strokeWidth=2;fontSize=23;" parent="1" edge="1">
          <mxGeometry relative="1" as="geometry">
            <mxPoint x="555" y="640" as="sourcePoint" />
            <mxPoint x="554.5" y="600" as="targetPoint" />
          </mxGeometry>
        </mxCell>
        <mxCell id="1y08PZAfGzx5HJ8WRer2-40" style="rounded=0;orthogonalLoop=1;jettySize=auto;html=1;entryX=0.5;entryY=1;entryDx=0;entryDy=0;endArrow=none;endFill=0;shape=link;endSize=0;startSize=0;sourcePerimeterSpacing=-4;targetPerimeterSpacing=7;strokeWidth=2;fontSize=23;" parent="1" edge="1">
          <mxGeometry relative="1" as="geometry">
            <mxPoint x="585" y="640" as="sourcePoint" />
            <mxPoint x="584.5" y="600" as="targetPoint" />
          </mxGeometry>
        </mxCell>
        <mxCell id="1y08PZAfGzx5HJ8WRer2-41" style="rounded=0;orthogonalLoop=1;jettySize=auto;html=1;entryX=0.5;entryY=1;entryDx=0;entryDy=0;endArrow=none;endFill=0;shape=link;endSize=0;startSize=0;sourcePerimeterSpacing=-4;targetPerimeterSpacing=7;strokeWidth=2;fontSize=23;" parent="1" edge="1">
          <mxGeometry relative="1" as="geometry">
            <mxPoint x="495" y="640" as="sourcePoint" />
            <mxPoint x="494.5" y="600" as="targetPoint" />
          </mxGeometry>
        </mxCell>
        <mxCell id="1y08PZAfGzx5HJ8WRer2-42" style="rounded=0;orthogonalLoop=1;jettySize=auto;html=1;entryX=0.5;entryY=1;entryDx=0;entryDy=0;endArrow=none;endFill=0;shape=link;endSize=0;startSize=0;sourcePerimeterSpacing=-4;targetPerimeterSpacing=7;strokeWidth=2;fontSize=23;" parent="1" edge="1">
          <mxGeometry relative="1" as="geometry">
            <mxPoint x="525" y="640" as="sourcePoint" />
            <mxPoint x="524.5" y="600" as="targetPoint" />
          </mxGeometry>
        </mxCell>
        <mxCell id="1y08PZAfGzx5HJ8WRer2-43" style="rounded=0;orthogonalLoop=1;jettySize=auto;html=1;exitX=0.5;exitY=0;exitDx=0;exitDy=0;entryX=0.5;entryY=1;entryDx=0;entryDy=0;endArrow=none;endFill=0;shape=link;strokeWidth=2;fontSize=23;" parent="1" edge="1">
          <mxGeometry relative="1" as="geometry">
            <mxPoint x="230" y="400" as="sourcePoint" />
            <mxPoint x="350" y="360" as="targetPoint" />
          </mxGeometry>
        </mxCell>
        <mxCell id="1y08PZAfGzx5HJ8WRer2-44" style="rounded=0;orthogonalLoop=1;jettySize=auto;html=1;exitX=0.5;exitY=0;exitDx=0;exitDy=0;entryX=0.5;entryY=1;entryDx=0;entryDy=0;endArrow=none;endFill=0;shape=link;strokeWidth=2;fontSize=23;" parent="1" edge="1">
          <mxGeometry relative="1" as="geometry">
            <mxPoint x="260" y="400" as="sourcePoint" />
            <mxPoint x="380" y="360" as="targetPoint" />
          </mxGeometry>
        </mxCell>
        <mxCell id="1y08PZAfGzx5HJ8WRer2-45" style="rounded=0;orthogonalLoop=1;jettySize=auto;html=1;exitX=0.5;exitY=0;exitDx=0;exitDy=0;entryX=0.5;entryY=1;entryDx=0;entryDy=0;endArrow=none;endFill=0;shape=link;strokeWidth=2;fontSize=23;" parent="1" edge="1">
          <mxGeometry relative="1" as="geometry">
            <mxPoint x="170" y="400" as="sourcePoint" />
            <mxPoint x="290" y="360" as="targetPoint" />
          </mxGeometry>
        </mxCell>
        <mxCell id="1y08PZAfGzx5HJ8WRer2-46" style="rounded=0;orthogonalLoop=1;jettySize=auto;html=1;exitX=0.5;exitY=0;exitDx=0;exitDy=0;entryX=0.5;entryY=1;entryDx=0;entryDy=0;endArrow=none;endFill=0;shape=link;strokeWidth=2;fontSize=23;" parent="1" edge="1">
          <mxGeometry relative="1" as="geometry">
            <mxPoint x="200" y="400" as="sourcePoint" />
            <mxPoint x="320" y="360" as="targetPoint" />
          </mxGeometry>
        </mxCell>
        <mxCell id="1y08PZAfGzx5HJ8WRer2-28" style="rounded=0;orthogonalLoop=1;jettySize=auto;html=1;exitX=0.5;exitY=0;exitDx=0;exitDy=0;entryX=0.5;entryY=1;entryDx=0;entryDy=0;endArrow=none;endFill=0;shape=link;strokeWidth=2;fontSize=23;" parent="1" edge="1">
          <mxGeometry relative="1" as="geometry">
            <mxPoint x="311" y="243" as="sourcePoint" />
            <mxPoint x="431" y="203" as="targetPoint" />
          </mxGeometry>
        </mxCell>
        <mxCell id="1y08PZAfGzx5HJ8WRer2-31" style="rounded=0;orthogonalLoop=1;jettySize=auto;html=1;exitX=0.5;exitY=0;exitDx=0;exitDy=0;entryX=0.5;entryY=1;entryDx=0;entryDy=0;endArrow=none;endFill=0;shape=link;strokeWidth=2;fontSize=23;" parent="1" edge="1">
          <mxGeometry relative="1" as="geometry">
            <mxPoint x="281" y="243" as="sourcePoint" />
            <mxPoint x="401" y="203" as="targetPoint" />
          </mxGeometry>
        </mxCell>
        <mxCell id="1y08PZAfGzx5HJ8WRer2-32" style="rounded=0;orthogonalLoop=1;jettySize=auto;html=1;exitX=0.5;exitY=0;exitDx=0;exitDy=0;entryX=0.5;entryY=1;entryDx=0;entryDy=0;endArrow=none;endFill=0;shape=link;strokeWidth=2;fontSize=23;" parent="1" edge="1">
          <mxGeometry relative="1" as="geometry">
            <mxPoint x="371" y="243" as="sourcePoint" />
            <mxPoint x="491" y="203" as="targetPoint" />
          </mxGeometry>
        </mxCell>
        <mxCell id="1y08PZAfGzx5HJ8WRer2-33" style="rounded=0;orthogonalLoop=1;jettySize=auto;html=1;exitX=0.5;exitY=0;exitDx=0;exitDy=0;entryX=0.5;entryY=1;entryDx=0;entryDy=0;endArrow=none;endFill=0;shape=link;strokeWidth=2;fontSize=23;" parent="1" edge="1">
          <mxGeometry relative="1" as="geometry">
            <mxPoint x="341" y="243" as="sourcePoint" />
            <mxPoint x="461" y="203" as="targetPoint" />
          </mxGeometry>
        </mxCell>
        <mxCell id="1y08PZAfGzx5HJ8WRer2-34" style="rounded=0;orthogonalLoop=1;jettySize=auto;html=1;exitX=0.5;exitY=0;exitDx=0;exitDy=0;entryX=0.5;entryY=1;entryDx=0;entryDy=0;endArrow=none;endFill=0;shape=link;strokeWidth=2;fontSize=23;" parent="1" edge="1">
          <mxGeometry relative="1" as="geometry">
            <mxPoint x="581" y="243" as="sourcePoint" />
            <mxPoint x="461" y="203" as="targetPoint" />
          </mxGeometry>
        </mxCell>
        <mxCell id="1y08PZAfGzx5HJ8WRer2-36" style="rounded=0;orthogonalLoop=1;jettySize=auto;html=1;exitX=0.5;exitY=0;exitDx=0;exitDy=0;entryX=0.5;entryY=1;entryDx=0;entryDy=0;endArrow=none;endFill=0;shape=link;strokeWidth=2;fontSize=23;" parent="1" edge="1">
          <mxGeometry relative="1" as="geometry">
            <mxPoint x="611" y="243" as="sourcePoint" />
            <mxPoint x="491" y="203" as="targetPoint" />
          </mxGeometry>
        </mxCell>
        <mxCell id="1y08PZAfGzx5HJ8WRer2-37" style="rounded=0;orthogonalLoop=1;jettySize=auto;html=1;exitX=0.5;exitY=0;exitDx=0;exitDy=0;entryX=0.5;entryY=1;entryDx=0;entryDy=0;endArrow=none;endFill=0;shape=link;strokeWidth=2;fontSize=23;" parent="1" edge="1">
          <mxGeometry relative="1" as="geometry">
            <mxPoint x="521" y="243" as="sourcePoint" />
            <mxPoint x="401" y="203" as="targetPoint" />
          </mxGeometry>
        </mxCell>
        <mxCell id="1y08PZAfGzx5HJ8WRer2-38" style="rounded=0;orthogonalLoop=1;jettySize=auto;html=1;exitX=0.5;exitY=0;exitDx=0;exitDy=0;entryX=0.5;entryY=1;entryDx=0;entryDy=0;endArrow=none;endFill=0;shape=link;strokeWidth=2;fontSize=23;" parent="1" edge="1">
          <mxGeometry relative="1" as="geometry">
            <mxPoint x="551" y="243" as="sourcePoint" />
            <mxPoint x="431" y="203" as="targetPoint" />
          </mxGeometry>
        </mxCell>
        <mxCell id="1y08PZAfGzx5HJ8WRer2-16" style="rounded=0;orthogonalLoop=1;jettySize=auto;html=1;exitX=0.5;exitY=0;exitDx=0;exitDy=0;entryX=0.5;entryY=1;entryDx=0;entryDy=0;endArrow=none;endFill=0;shape=link;strokeWidth=2;fontSize=23;" parent="1" edge="1">
          <mxGeometry relative="1" as="geometry">
            <mxPoint x="520" y="480" as="sourcePoint" />
            <mxPoint x="640" y="440" as="targetPoint" />
          </mxGeometry>
        </mxCell>
        <mxCell id="1y08PZAfGzx5HJ8WRer2-19" style="rounded=0;orthogonalLoop=1;jettySize=auto;html=1;exitX=0.5;exitY=0;exitDx=0;exitDy=0;entryX=0.5;entryY=1;entryDx=0;entryDy=0;endArrow=none;endFill=0;shape=link;strokeWidth=2;fontSize=23;" parent="1" edge="1">
          <mxGeometry relative="1" as="geometry">
            <mxPoint x="490" y="480" as="sourcePoint" />
            <mxPoint x="610" y="440" as="targetPoint" />
          </mxGeometry>
        </mxCell>
        <mxCell id="1y08PZAfGzx5HJ8WRer2-20" style="rounded=0;orthogonalLoop=1;jettySize=auto;html=1;exitX=0.5;exitY=0;exitDx=0;exitDy=0;entryX=0.5;entryY=1;entryDx=0;entryDy=0;endArrow=none;endFill=0;shape=link;strokeWidth=2;fontSize=23;" parent="1" edge="1">
          <mxGeometry relative="1" as="geometry">
            <mxPoint x="580" y="480" as="sourcePoint" />
            <mxPoint x="700" y="440" as="targetPoint" />
          </mxGeometry>
        </mxCell>
        <mxCell id="1y08PZAfGzx5HJ8WRer2-21" style="rounded=0;orthogonalLoop=1;jettySize=auto;html=1;exitX=0.5;exitY=0;exitDx=0;exitDy=0;entryX=0.5;entryY=1;entryDx=0;entryDy=0;endArrow=none;endFill=0;shape=link;strokeWidth=2;fontSize=23;" parent="1" edge="1">
          <mxGeometry relative="1" as="geometry">
            <mxPoint x="550" y="480" as="sourcePoint" />
            <mxPoint x="670" y="440" as="targetPoint" />
          </mxGeometry>
        </mxCell>
        <mxCell id="1y08PZAfGzx5HJ8WRer2-22" style="rounded=0;orthogonalLoop=1;jettySize=auto;html=1;exitX=0.5;exitY=0;exitDx=0;exitDy=0;entryX=0.5;entryY=1;entryDx=0;entryDy=0;endArrow=none;endFill=0;shape=link;strokeWidth=2;fontSize=23;" parent="1" edge="1">
          <mxGeometry relative="1" as="geometry">
            <mxPoint x="790" y="480" as="sourcePoint" />
            <mxPoint x="670" y="440" as="targetPoint" />
          </mxGeometry>
        </mxCell>
        <mxCell id="1y08PZAfGzx5HJ8WRer2-24" style="rounded=0;orthogonalLoop=1;jettySize=auto;html=1;exitX=0.5;exitY=0;exitDx=0;exitDy=0;entryX=0.5;entryY=1;entryDx=0;entryDy=0;endArrow=none;endFill=0;shape=link;strokeWidth=2;fontSize=23;" parent="1" edge="1">
          <mxGeometry relative="1" as="geometry">
            <mxPoint x="820" y="480" as="sourcePoint" />
            <mxPoint x="700" y="440" as="targetPoint" />
          </mxGeometry>
        </mxCell>
        <mxCell id="1y08PZAfGzx5HJ8WRer2-25" style="rounded=0;orthogonalLoop=1;jettySize=auto;html=1;exitX=0.5;exitY=0;exitDx=0;exitDy=0;entryX=0.5;entryY=1;entryDx=0;entryDy=0;endArrow=none;endFill=0;shape=link;strokeWidth=2;fontSize=23;" parent="1" edge="1">
          <mxGeometry relative="1" as="geometry">
            <mxPoint x="730" y="480" as="sourcePoint" />
            <mxPoint x="610" y="440" as="targetPoint" />
          </mxGeometry>
        </mxCell>
        <mxCell id="1y08PZAfGzx5HJ8WRer2-26" style="rounded=0;orthogonalLoop=1;jettySize=auto;html=1;exitX=0.5;exitY=0;exitDx=0;exitDy=0;entryX=0.5;entryY=1;entryDx=0;entryDy=0;endArrow=none;endFill=0;shape=link;strokeWidth=2;fontSize=23;" parent="1" edge="1">
          <mxGeometry relative="1" as="geometry">
            <mxPoint x="760" y="480" as="sourcePoint" />
            <mxPoint x="640" y="440" as="targetPoint" />
          </mxGeometry>
        </mxCell>
        <mxCell id="1y08PZAfGzx5HJ8WRer2-55" style="rounded=0;orthogonalLoop=1;jettySize=auto;html=1;entryX=0.5;entryY=1;entryDx=0;entryDy=0;endArrow=none;endFill=0;shape=link;endSize=0;startSize=0;sourcePerimeterSpacing=-4;targetPerimeterSpacing=7;strokeWidth=2;fontSize=23;" parent="1" edge="1">
          <mxGeometry relative="1" as="geometry">
            <mxPoint x="785.25" y="640" as="sourcePoint" />
            <mxPoint x="784.75" y="600" as="targetPoint" />
          </mxGeometry>
        </mxCell>
        <mxCell id="1y08PZAfGzx5HJ8WRer2-56" style="rounded=0;orthogonalLoop=1;jettySize=auto;html=1;entryX=0.5;entryY=1;entryDx=0;entryDy=0;endArrow=none;endFill=0;shape=link;endSize=0;startSize=0;sourcePerimeterSpacing=-4;targetPerimeterSpacing=7;strokeWidth=2;fontSize=23;" parent="1" edge="1">
          <mxGeometry relative="1" as="geometry">
            <mxPoint x="815.25" y="640" as="sourcePoint" />
            <mxPoint x="814.75" y="600" as="targetPoint" />
          </mxGeometry>
        </mxCell>
        <mxCell id="1y08PZAfGzx5HJ8WRer2-57" style="rounded=0;orthogonalLoop=1;jettySize=auto;html=1;entryX=0.5;entryY=1;entryDx=0;entryDy=0;endArrow=none;endFill=0;shape=link;endSize=0;startSize=0;sourcePerimeterSpacing=-4;targetPerimeterSpacing=7;strokeWidth=2;fontSize=23;" parent="1" edge="1">
          <mxGeometry relative="1" as="geometry">
            <mxPoint x="725.25" y="640" as="sourcePoint" />
            <mxPoint x="724.75" y="600" as="targetPoint" />
          </mxGeometry>
        </mxCell>
        <mxCell id="1y08PZAfGzx5HJ8WRer2-58" style="rounded=0;orthogonalLoop=1;jettySize=auto;html=1;entryX=0.5;entryY=1;entryDx=0;entryDy=0;endArrow=none;endFill=0;shape=link;endSize=0;startSize=0;sourcePerimeterSpacing=-4;targetPerimeterSpacing=7;strokeWidth=2;fontSize=23;" parent="1" edge="1">
          <mxGeometry relative="1" as="geometry">
            <mxPoint x="755.25" y="640" as="sourcePoint" />
            <mxPoint x="754.75" y="600" as="targetPoint" />
          </mxGeometry>
        </mxCell>
        <mxCell id="1y08PZAfGzx5HJ8WRer2-59" style="rounded=0;orthogonalLoop=1;jettySize=auto;html=1;entryX=0.5;entryY=1;entryDx=0;entryDy=0;endArrow=none;endFill=0;shape=link;endSize=0;startSize=0;sourcePerimeterSpacing=-4;targetPerimeterSpacing=7;strokeWidth=2;fontSize=23;" parent="1" edge="1">
          <mxGeometry relative="1" as="geometry">
            <mxPoint x="130.5" y="640" as="sourcePoint" />
            <mxPoint x="130" y="600" as="targetPoint" />
          </mxGeometry>
        </mxCell>
        <mxCell id="1y08PZAfGzx5HJ8WRer2-60" style="rounded=0;orthogonalLoop=1;jettySize=auto;html=1;entryX=0.5;entryY=1;entryDx=0;entryDy=0;endArrow=none;endFill=0;shape=link;endSize=0;startSize=0;sourcePerimeterSpacing=-4;targetPerimeterSpacing=7;strokeWidth=2;fontSize=23;" parent="1" edge="1">
          <mxGeometry relative="1" as="geometry">
            <mxPoint x="160.5" y="640" as="sourcePoint" />
            <mxPoint x="160" y="600" as="targetPoint" />
          </mxGeometry>
        </mxCell>
        <mxCell id="1y08PZAfGzx5HJ8WRer2-61" style="rounded=0;orthogonalLoop=1;jettySize=auto;html=1;entryX=0.5;entryY=1;entryDx=0;entryDy=0;endArrow=none;endFill=0;shape=link;endSize=0;startSize=0;sourcePerimeterSpacing=-4;targetPerimeterSpacing=7;strokeWidth=2;fontSize=23;" parent="1" edge="1">
          <mxGeometry relative="1" as="geometry">
            <mxPoint x="70.5" y="640" as="sourcePoint" />
            <mxPoint x="70" y="600" as="targetPoint" />
          </mxGeometry>
        </mxCell>
        <mxCell id="1y08PZAfGzx5HJ8WRer2-62" style="rounded=0;orthogonalLoop=1;jettySize=auto;html=1;entryX=0.5;entryY=1;entryDx=0;entryDy=0;endArrow=none;endFill=0;shape=link;endSize=0;startSize=0;sourcePerimeterSpacing=-4;targetPerimeterSpacing=7;strokeWidth=2;fontSize=23;" parent="1" edge="1">
          <mxGeometry relative="1" as="geometry">
            <mxPoint x="100.5" y="640" as="sourcePoint" />
            <mxPoint x="100" y="600" as="targetPoint" />
          </mxGeometry>
        </mxCell>
        <mxCell id="1y08PZAfGzx5HJ8WRer2-63" style="rounded=0;orthogonalLoop=1;jettySize=auto;html=1;entryX=0.5;entryY=1;entryDx=0;entryDy=0;endArrow=none;endFill=0;shape=link;endSize=0;startSize=0;sourcePerimeterSpacing=-4;targetPerimeterSpacing=7;strokeWidth=2;fontSize=23;" parent="1" edge="1">
          <mxGeometry relative="1" as="geometry">
            <mxPoint x="370.75" y="640" as="sourcePoint" />
            <mxPoint x="370.25" y="600" as="targetPoint" />
          </mxGeometry>
        </mxCell>
        <mxCell id="1y08PZAfGzx5HJ8WRer2-64" style="rounded=0;orthogonalLoop=1;jettySize=auto;html=1;entryX=0.5;entryY=1;entryDx=0;entryDy=0;endArrow=none;endFill=0;shape=link;endSize=0;startSize=0;sourcePerimeterSpacing=-4;targetPerimeterSpacing=7;strokeWidth=2;fontSize=23;" parent="1" edge="1">
          <mxGeometry relative="1" as="geometry">
            <mxPoint x="400.75" y="640" as="sourcePoint" />
            <mxPoint x="400.25" y="600" as="targetPoint" />
          </mxGeometry>
        </mxCell>
        <mxCell id="1y08PZAfGzx5HJ8WRer2-65" style="rounded=0;orthogonalLoop=1;jettySize=auto;html=1;entryX=0.5;entryY=1;entryDx=0;entryDy=0;endArrow=none;endFill=0;shape=link;endSize=0;startSize=0;sourcePerimeterSpacing=-4;targetPerimeterSpacing=7;strokeWidth=2;fontSize=23;" parent="1" edge="1">
          <mxGeometry relative="1" as="geometry">
            <mxPoint x="310.75" y="640" as="sourcePoint" />
            <mxPoint x="310.25" y="600" as="targetPoint" />
          </mxGeometry>
        </mxCell>
        <mxCell id="1y08PZAfGzx5HJ8WRer2-66" style="rounded=0;orthogonalLoop=1;jettySize=auto;html=1;entryX=0.5;entryY=1;entryDx=0;entryDy=0;endArrow=none;endFill=0;shape=link;endSize=0;startSize=0;sourcePerimeterSpacing=-4;targetPerimeterSpacing=7;strokeWidth=2;fontSize=23;" parent="1" edge="1">
          <mxGeometry relative="1" as="geometry">
            <mxPoint x="340.75" y="640" as="sourcePoint" />
            <mxPoint x="340.25" y="600" as="targetPoint" />
          </mxGeometry>
        </mxCell>
        <mxCell id="1y08PZAfGzx5HJ8WRer2-67" style="rounded=0;orthogonalLoop=1;jettySize=auto;html=1;exitX=0.5;exitY=0;exitDx=0;exitDy=0;entryX=0.5;entryY=1;entryDx=0;entryDy=0;endArrow=none;endFill=0;shape=link;strokeWidth=2;fontSize=23;" parent="1" edge="1">
          <mxGeometry relative="1" as="geometry">
            <mxPoint x="680" y="400" as="sourcePoint" />
            <mxPoint x="560" y="360" as="targetPoint" />
          </mxGeometry>
        </mxCell>
        <mxCell id="1y08PZAfGzx5HJ8WRer2-68" style="rounded=0;orthogonalLoop=1;jettySize=auto;html=1;exitX=0.5;exitY=0;exitDx=0;exitDy=0;entryX=0.5;entryY=1;entryDx=0;entryDy=0;endArrow=none;endFill=0;shape=link;strokeWidth=2;fontSize=23;" parent="1" edge="1">
          <mxGeometry relative="1" as="geometry">
            <mxPoint x="710" y="400" as="sourcePoint" />
            <mxPoint x="590" y="360" as="targetPoint" />
          </mxGeometry>
        </mxCell>
        <mxCell id="1y08PZAfGzx5HJ8WRer2-69" style="rounded=0;orthogonalLoop=1;jettySize=auto;html=1;exitX=0.5;exitY=0;exitDx=0;exitDy=0;entryX=0.5;entryY=1;entryDx=0;entryDy=0;endArrow=none;endFill=0;shape=link;strokeWidth=2;fontSize=23;" parent="1" edge="1">
          <mxGeometry relative="1" as="geometry">
            <mxPoint x="620" y="400" as="sourcePoint" />
            <mxPoint x="500" y="360" as="targetPoint" />
          </mxGeometry>
        </mxCell>
        <mxCell id="1y08PZAfGzx5HJ8WRer2-70" style="rounded=0;orthogonalLoop=1;jettySize=auto;html=1;exitX=0.5;exitY=0;exitDx=0;exitDy=0;entryX=0.5;entryY=1;entryDx=0;entryDy=0;endArrow=none;endFill=0;shape=link;strokeWidth=2;fontSize=23;" parent="1" edge="1">
          <mxGeometry relative="1" as="geometry">
            <mxPoint x="650" y="400" as="sourcePoint" />
            <mxPoint x="530" y="360" as="targetPoint" />
          </mxGeometry>
        </mxCell>
        <mxCell id="1y08PZAfGzx5HJ8WRer2-1" value="SORT 4" style="rounded=0;whiteSpace=wrap;html=1;strokeWidth=3;fontSize=23;" parent="1" vertex="1">
          <mxGeometry x="40" y="477.90909090909065" width="160" height="121.09090909090905" as="geometry" />
        </mxCell>
        <mxCell id="1y08PZAfGzx5HJ8WRer2-2" value="MAX" style="rounded=0;whiteSpace=wrap;html=1;strokeWidth=3;fontSize=23;" parent="1" vertex="1">
          <mxGeometry x="150" y="397.18181818181813" width="160" height="40.36363636363633" as="geometry" />
        </mxCell>
        <mxCell id="1y08PZAfGzx5HJ8WRer2-9" value="SORT 4" style="rounded=0;whiteSpace=wrap;html=1;strokeWidth=3;fontSize=23;" parent="1" vertex="1">
          <mxGeometry x="270" y="477.90909090909065" width="160" height="121.09090909090905" as="geometry" />
        </mxCell>
        <mxCell id="1y08PZAfGzx5HJ8WRer2-29" value="SORT 4" style="rounded=0;whiteSpace=wrap;html=1;strokeWidth=3;fontSize=23;" parent="1" vertex="1">
          <mxGeometry x="250" y="239.99727272727267" width="160" height="121.09090909090905" as="geometry" />
        </mxCell>
        <mxCell id="1y08PZAfGzx5HJ8WRer2-30" value="MAX" style="rounded=0;whiteSpace=wrap;html=1;strokeWidth=3;fontSize=23;" parent="1" vertex="1">
          <mxGeometry x="361" y="160" width="160" height="40.36363636363633" as="geometry" />
        </mxCell>
        <mxCell id="1y08PZAfGzx5HJ8WRer2-35" value="SORT 4" style="rounded=0;whiteSpace=wrap;html=1;strokeWidth=3;fontSize=23;" parent="1" vertex="1">
          <mxGeometry x="480" y="240.99727272727267" width="160" height="121.09090909090905" as="geometry" />
        </mxCell>
        <mxCell id="1y08PZAfGzx5HJ8WRer2-17" value="SORT 4" style="rounded=0;whiteSpace=wrap;html=1;strokeWidth=3;fontSize=23;" parent="1" vertex="1">
          <mxGeometry x="460" y="477.90909090909065" width="160" height="121.09090909090905" as="geometry" />
        </mxCell>
        <mxCell id="1y08PZAfGzx5HJ8WRer2-18" value="MAX" style="rounded=0;whiteSpace=wrap;html=1;strokeWidth=3;fontSize=23;" parent="1" vertex="1">
          <mxGeometry x="570" y="397.18181818181813" width="160" height="40.36363636363633" as="geometry" />
        </mxCell>
        <mxCell id="1y08PZAfGzx5HJ8WRer2-23" value="SORT 4" style="rounded=0;whiteSpace=wrap;html=1;strokeWidth=3;fontSize=23;" parent="1" vertex="1">
          <mxGeometry x="690" y="477.90909090909065" width="160" height="121.09090909090905" as="geometry" />
        </mxCell>
        <mxCell id="1y08PZAfGzx5HJ8WRer2-72" value="In: Priority scores, Out: k out of n selection" style="text;html=1;align=center;verticalAlign=middle;whiteSpace=wrap;rounded=0;fontSize=23;strokeWidth=2;" parent="1" vertex="1">
          <mxGeometry x="250" y="650" width="390" height="30" as="geometry" />
        </mxCell>
        <mxCell id="1y08PZAfGzx5HJ8WRer2-74" style="rounded=0;orthogonalLoop=1;jettySize=auto;html=1;entryX=0.5;entryY=1;entryDx=0;entryDy=0;endArrow=none;endFill=0;sourcePerimeterSpacing=-4;targetPerimeterSpacing=7;strokeWidth=2;startArrow=block;startFill=1;fontSize=23;" parent="1" edge="1">
          <mxGeometry relative="1" as="geometry">
            <mxPoint x="460.15999999999997" y="160" as="sourcePoint" />
            <mxPoint x="459.65999999999997" y="120.00000000000001" as="targetPoint" />
          </mxGeometry>
        </mxCell>
        <mxCell id="1y08PZAfGzx5HJ8WRer2-75" style="rounded=0;orthogonalLoop=1;jettySize=auto;html=1;entryX=0.5;entryY=1;entryDx=0;entryDy=0;endArrow=none;endFill=0;sourcePerimeterSpacing=-4;targetPerimeterSpacing=7;strokeWidth=2;startArrow=block;startFill=1;fontSize=23;" parent="1" edge="1">
          <mxGeometry relative="1" as="geometry">
            <mxPoint x="490.15999999999997" y="160" as="sourcePoint" />
            <mxPoint x="489.65999999999997" y="120.00000000000001" as="targetPoint" />
          </mxGeometry>
        </mxCell>
        <mxCell id="1y08PZAfGzx5HJ8WRer2-76" style="rounded=0;orthogonalLoop=1;jettySize=auto;html=1;entryX=0.5;entryY=1;entryDx=0;entryDy=0;endArrow=none;endFill=0;sourcePerimeterSpacing=-4;targetPerimeterSpacing=7;strokeWidth=2;startArrow=block;startFill=1;fontSize=23;" parent="1" edge="1">
          <mxGeometry relative="1" as="geometry">
            <mxPoint x="400.15999999999997" y="160" as="sourcePoint" />
            <mxPoint x="399.65999999999997" y="120.00000000000001" as="targetPoint" />
          </mxGeometry>
        </mxCell>
        <mxCell id="1y08PZAfGzx5HJ8WRer2-77" style="rounded=0;orthogonalLoop=1;jettySize=auto;html=1;entryX=0.5;entryY=1;entryDx=0;entryDy=0;endArrow=none;endFill=0;sourcePerimeterSpacing=-4;targetPerimeterSpacing=7;strokeWidth=2;startArrow=block;startFill=1;fontSize=23;" parent="1" edge="1">
          <mxGeometry relative="1" as="geometry">
            <mxPoint x="430.15999999999997" y="160" as="sourcePoint" />
            <mxPoint x="429.65999999999997" y="120.00000000000001" as="targetPoint" />
          </mxGeometry>
        </mxCell>
        <mxCell id="1y08PZAfGzx5HJ8WRer2-78" value="return-k" style="text;html=1;align=center;verticalAlign=middle;whiteSpace=wrap;rounded=0;fontSize=23;strokeWidth=2;" parent="1" vertex="1">
          <mxGeometry x="246" y="90" width="390" height="30" as="geometry" />
        </mxCell>
      </root>
    </mxGraphModel>
  </diagram>
</mxfile>
